<?xml version="1.0" encoding="UTF-8"?>
<svg width="56px" height="40px" viewBox="0 0 56 40" version="1.1" xmlns="http://www.w3.org/2000/svg" xmlns:xlink="http://www.w3.org/1999/xlink">
    <!-- Generator: Sketch 51.2 (57519) - http://www.bohemiancoding.com/sketch -->
    <title>icon</title>
    <desc>Created with Sketch.</desc>
    <defs></defs>
    <g id="Page-1" stroke="none" stroke-width="1" fill="none" fill-rule="evenodd">
        <g id="icon">
            <rect id="Rectangle" fill="#FFFFFF" fill-rule="nonzero" x="0" y="0" width="56" height="40"></rect>
            <path d="M18.9729203,13.4306895 C19.2025874,13.8491116 19.0762208,14.3903515 18.6906583,14.6394406 L10.3996738,20.0000359 L18.6906583,25.3607392 C19.0760219,25.6099362 19.202488,26.1509603 18.9728208,26.5693824 C18.8210019,26.8463159 18.5510684,27 18.2742747,27 C18.1327958,27 17.9896267,26.9599601 17.8592831,26.8756713 L8.3965984,20.7575559 C8.15072529,20.5985836 8,20.3107497 8,20.0000359 C8,19.6893221 8.15072529,19.4014883 8.39669782,19.2426238 L17.8593825,13.1244006 C18.2447461,12.8750956 18.7433525,13.0122673 18.9729203,13.4306895 Z M36.556539,26.5693809 C36.3267734,26.1509574 36.453239,25.6098235 36.8387003,25.3607336 L45.1296489,20.000012 L36.8387003,14.6392903 C36.4533384,14.3902004 36.3269723,13.8490666 36.556539,13.430643 C36.7860064,13.0122194 37.28471,12.8751552 37.670072,13.124353 L47.1328151,19.2424894 C47.3786871,19.4014623 47.5294118,19.6892971 47.5294118,20.000012 C47.5294118,20.3107268 47.3787866,20.5984537 47.1328151,20.7574266 L37.670072,26.8756709 C37.5398284,26.95996 37.3965604,27 37.2550821,27 C36.9782896,27 36.7084567,26.8463154 36.556539,26.5693809 Z M31.0263501,13.3903024 C31.2885433,12.9861255 31.8176211,12.878309 32.208461,13.1497389 C32.5989882,13.4213846 32.702823,13.9692088 32.4406298,14.3733857 L24.5030033,26.6097454 C24.3387025,26.8630439 24.0694201,27 23.7951337,27 C23.6318754,27 23.4668448,26.9516499 23.3209966,26.8502009 C22.9304694,26.5786632 22.8265304,26.030839 23.0888279,25.6265542 L31.0263501,13.3903024 Z" id="Combined-Shape" stroke="#E3E3E3" fill="#E3E3E3"></path>
        </g>
    </g>
</svg>